<?xml version="1.0" standalone="yes"?>

<svg version="1.1" viewBox="0.0 0.0 100.0 119.47769028871392" fill="none" stroke="none" stroke-linecap="square" stroke-miterlimit="10" xmlns="http://www.w3.org/2000/svg" xmlns:xlink="http://www.w3.org/1999/xlink"><clipPath id="p.0"><path d="m0 0l100.0 0l0 119.47769l-100.0 0l0 -119.47769z" clip-rule="nonzero"></path></clipPath><g clip-path="url(#p.0)"><path fill="#000000" fill-opacity="0.0" d="m0 0l100.0 0l0 119.47769l-100.0 0z" fill-rule="nonzero"></path><path fill="#000000" fill-opacity="0.0" d="m39.321785 18.979757l0 80.0136l0 0c0 10.482002 -8.802576 18.97934 -19.661102 18.97934c-10.858527 0 -19.661102 -8.497337 -19.661102 -18.97934l0 -80.0136l0 0c0 -10.481998 8.802575 -18.979338 19.661102 -18.979338c10.858526 0 19.661102 8.497339 19.661102 18.979338z" fill-rule="nonzero"></path><path stroke="#000000" stroke-width="1.0" stroke-linejoin="round" stroke-linecap="butt" d="m39.321785 18.979757l0 80.0136l0 0c0 10.482002 -8.802576 18.97934 -19.661102 18.97934c-10.858527 0 -19.661102 -8.497337 -19.661102 -18.97934l0 -80.0136l0 0c0 -10.481998 8.802575 -18.979338 19.661102 -18.979338c10.858526 0 19.661102 8.497339 19.661102 18.979338z" fill-rule="nonzero"></path><path fill="#3c78d8" fill-opacity="0.7192" d="m30.406748 106.220474l-21.490662 0c-1.021904 0 -2.001954 -0.40595245 -2.7245493 -1.1285477c-0.7225957 -0.7225952 -1.1285458 -1.7026443 -1.1285458 -2.7245483l0 -19.265015c0 -1.373291E-4 1.0919571E-4 -2.4414062E-4 2.4318695E-4 -2.4414062E-4l29.196606 2.4414062E-4l0 0c1.335144E-4 0 2.4414062E-4 1.0681152E-4 2.4414062E-4 2.4414062E-4l-2.4414062E-4 19.26477l0 0c0 2.128006 -1.72509 3.853096 -3.853094 3.853096z" fill-rule="nonzero"></path><path stroke="#3c78d8" stroke-width="1.0" stroke-linejoin="round" stroke-linecap="butt" d="m30.406748 106.220474l-21.490662 0c-1.021904 0 -2.001954 -0.40595245 -2.7245493 -1.1285477c-0.7225957 -0.7225952 -1.1285458 -1.7026443 -1.1285458 -2.7245483l0 -19.265015c0 -1.373291E-4 1.0919571E-4 -2.4414062E-4 2.4318695E-4 -2.4414062E-4l29.196606 2.4414062E-4l0 0c1.335144E-4 0 2.4414062E-4 1.0681152E-4 2.4414062E-4 2.4414062E-4l-2.4414062E-4 19.26477l0 0c0 2.128006 -1.72509 3.853096 -3.853094 3.853096z" fill-rule="nonzero"></path><path fill="#000000" fill-opacity="0.0" d="m0 0l29.19685 0l0 97.291336l-29.19685 0z" fill-rule="nonzero"></path><path fill="#000000" d="m9.515625 20.9225l0 -1.421875l4.3125 0l0 1.421875l-4.3125 0z" fill-rule="nonzero"></path><path fill="#000000" d="m9.515625 39.9225l0 -1.421875l4.3125 0l0 1.421875l-4.3125 0z" fill-rule="nonzero"></path><path fill="#000000" d="m9.515625 58.9225l0 -1.421875l4.3125 0l0 1.421875l-4.3125 0z" fill-rule="nonzero"></path><path fill="#000000" d="m9.515625 77.9225l0 -1.421875l4.3125 0l0 1.421875l-4.3125 0z" fill-rule="nonzero"></path><path fill="#000000" d="m9.515625 96.9225l0 -1.421875l4.3125 0l0 1.421875l-4.3125 0z" fill-rule="nonzero"></path><path fill="#3c78d8" fill-opacity="0.7192" d="m45.622047 23.422573l2.3092728 -2.3092728l0 1.1546364l0.9258919 0l0 -1.8464203l1.8464203 0l0 -0.9258919l-1.1546364 0l2.3092728 -2.3092728l2.3092728 2.3092728l-1.1546364 0l0 0.9258919l1.8464203 0l0 1.8464203l0.9258919 0l0 -1.1546364l2.3092728 2.3092728l-2.3092728 2.3092709l0 -1.1546364l-0.9258919 0l0 1.8464203l-1.8464203 0l0 0.9258919l1.1546364 0l-2.3092728 2.3092728l-2.3092728 -2.3092728l1.1546364 0l0 -0.9258919l-1.8464203 0l0 -1.8464203l-0.9258919 0l0 1.1546364z" fill-rule="nonzero"></path><path stroke="#1155cc" stroke-width="1.0" stroke-linejoin="round" stroke-linecap="butt" d="m45.622047 23.422573l2.3092728 -2.3092728l0 1.1546364l0.9258919 0l0 -1.8464203l1.8464203 0l0 -0.9258919l-1.1546364 0l2.3092728 -2.3092728l2.3092728 2.3092728l-1.1546364 0l0 0.9258919l1.8464203 0l0 1.8464203l0.9258919 0l0 -1.1546364l2.3092728 2.3092728l-2.3092728 2.3092709l0 -1.1546364l-0.9258919 0l0 1.8464203l-1.8464203 0l0 0.9258919l1.1546364 0l-2.3092728 2.3092728l-2.3092728 -2.3092728l1.1546364 0l0 -0.9258919l-1.8464203 0l0 -1.8464203l-0.9258919 0l0 1.1546364z" fill-rule="nonzero"></path><path fill="#3c78d8" fill-opacity="0.7192" d="m61.622047 39.422573l2.3092728 -2.3092728l0 1.1546364l0.92588806 0l0 -1.8464203l1.8464203 0l0 -0.9258919l-1.1546326 0l2.3092728 -2.3092728l2.3092728 2.3092728l-1.1546402 0l0 0.9258919l1.8464203 0l0 1.8464203l0.9258957 0l0 -1.1546364l2.3092728 2.3092728l-2.3092728 2.3092728l0 -1.1546364l-0.9258957 0l0 1.8464203l-1.8464203 0l0 0.9258919l1.1546402 0l-2.3092728 2.3092728l-2.3092728 -2.3092728l1.1546326 0l0 -0.9258919l-1.8464203 0l0 -1.8464203l-0.92588806 0l0 1.1546364z" fill-rule="nonzero"></path><path stroke="#1155cc" stroke-width="1.0" stroke-linejoin="round" stroke-linecap="butt" d="m61.622047 39.422573l2.3092728 -2.3092728l0 1.1546364l0.92588806 0l0 -1.8464203l1.8464203 0l0 -0.9258919l-1.1546326 0l2.3092728 -2.3092728l2.3092728 2.3092728l-1.1546402 0l0 0.9258919l1.8464203 0l0 1.8464203l0.9258957 0l0 -1.1546364l2.3092728 2.3092728l-2.3092728 2.3092728l0 -1.1546364l-0.9258957 0l0 1.8464203l-1.8464203 0l0 0.9258919l1.1546402 0l-2.3092728 2.3092728l-2.3092728 -2.3092728l1.1546326 0l0 -0.9258919l-1.8464203 0l0 -1.8464203l-0.92588806 0l0 1.1546364z" fill-rule="nonzero"></path><path fill="#3c78d8" fill-opacity="0.7192" d="m43.76378 54.603676l2.3092728 -2.3092728l0 1.1546364l0.9258919 0l0 -1.8464203l1.8464203 0l0 -0.9258919l-1.1546364 0l2.3092728 -2.3092728l2.3092728 2.3092728l-1.1546364 0l0 0.9258919l1.8464203 0l0 1.8464203l0.9258919 0l0 -1.1546364l2.3092728 2.3092728l-2.3092728 2.3092728l0 -1.1546364l-0.9258919 0l0 1.8464203l-1.8464203 0l0 0.9258919l1.1546364 0l-2.3092728 2.309269l-2.3092728 -2.309269l1.1546364 0l0 -0.9258919l-1.8464203 0l0 -1.8464203l-0.9258919 0l0 1.1546364z" fill-rule="nonzero"></path><path stroke="#1155cc" stroke-width="1.0" stroke-linejoin="round" stroke-linecap="butt" d="m43.76378 54.603676l2.3092728 -2.3092728l0 1.1546364l0.9258919 0l0 -1.8464203l1.8464203 0l0 -0.9258919l-1.1546364 0l2.3092728 -2.3092728l2.3092728 2.3092728l-1.1546364 0l0 0.9258919l1.8464203 0l0 1.8464203l0.9258919 0l0 -1.1546364l2.3092728 2.3092728l-2.3092728 2.3092728l0 -1.1546364l-0.9258919 0l0 1.8464203l-1.8464203 0l0 0.9258919l1.1546364 0l-2.3092728 2.309269l-2.3092728 -2.309269l1.1546364 0l0 -0.9258919l-1.8464203 0l0 -1.8464203l-0.9258919 0l0 1.1546364z" fill-rule="nonzero"></path></g></svg>

