<?xml version="1.0" standalone="yes"?>

<svg version="1.1" viewBox="0.0 0.0 100.0 119.47769028871392" fill="none" stroke="none" stroke-linecap="square" stroke-miterlimit="10" xmlns="http://www.w3.org/2000/svg" xmlns:xlink="http://www.w3.org/1999/xlink"><clipPath id="p.0"><path d="m0 0l100.0 0l0 119.47769l-100.0 0l0 -119.47769z" clip-rule="nonzero"></path></clipPath><g clip-path="url(#p.0)"><path fill="#000000" fill-opacity="0.0" d="m0 0l100.0 0l0 119.47769l-100.0 0z" fill-rule="nonzero"></path><path fill="#000000" fill-opacity="0.0" d="m39.321785 18.979757l0 80.0136l0 0c0 10.482002 -8.802576 18.97934 -19.661102 18.97934c-10.858527 0 -19.661102 -8.497337 -19.661102 -18.97934l0 -80.0136l0 0c0 -10.481998 8.802575 -18.979338 19.661102 -18.979338c10.858526 0 19.661102 8.497339 19.661102 18.979338z" fill-rule="nonzero"></path><path stroke="#000000" stroke-width="1.0" stroke-linejoin="round" stroke-linecap="butt" d="m39.321785 18.979757l0 80.0136l0 0c0 10.482002 -8.802576 18.97934 -19.661102 18.97934c-10.858527 0 -19.661102 -8.497337 -19.661102 -18.97934l0 -80.0136l0 0c0 -10.481998 8.802575 -18.979338 19.661102 -18.979338c10.858526 0 19.661102 8.497339 19.661102 18.979338z" fill-rule="nonzero"></path><path fill="#cc0000" fill-opacity="0.6808" d="m29.393604 106.220474l-19.464373 0l0 0c-1.2906075 0 -2.5283542 -0.5126953 -3.4409509 -1.425293c-0.9125972 -0.91259766 -1.4252887 -2.1503448 -1.4252887 -3.4409485l0 -83.92116c0 -1.3542175E-4 1.0919571E-4 -2.4414062E-4 2.4318695E-4 -2.4414062E-4l29.196606 2.4414062E-4l0 0c1.335144E-4 0 2.4414062E-4 1.0871887E-4 2.4414062E-4 2.4223328E-4l-2.4414062E-4 83.92092l0 0c0 2.6875534 -2.178688 4.8662415 -4.8662376 4.8662415z" fill-rule="nonzero"></path><path stroke="#990000" stroke-width="1.0" stroke-linejoin="round" stroke-linecap="butt" d="m29.393604 106.220474l-19.464373 0l0 0c-1.2906075 0 -2.5283542 -0.5126953 -3.4409509 -1.425293c-0.9125972 -0.91259766 -1.4252887 -2.1503448 -1.4252887 -3.4409485l0 -83.92116c0 -1.3542175E-4 1.0919571E-4 -2.4414062E-4 2.4318695E-4 -2.4414062E-4l29.196606 2.4414062E-4l0 0c1.335144E-4 0 2.4414062E-4 1.0871887E-4 2.4414062E-4 2.4223328E-4l-2.4414062E-4 83.92092l0 0c0 2.6875534 -2.178688 4.8662415 -4.8662376 4.8662415z" fill-rule="nonzero"></path><path fill="#000000" fill-opacity="0.0" d="m0 0l29.19685 0l0 97.291336l-29.19685 0z" fill-rule="nonzero"></path><path fill="#000000" d="m9.515625 20.9225l0 -1.421875l4.3125 0l0 1.421875l-4.3125 0z" fill-rule="nonzero"></path><path fill="#000000" d="m9.515625 39.9225l0 -1.421875l4.3125 0l0 1.421875l-4.3125 0z" fill-rule="nonzero"></path><path fill="#000000" d="m9.515625 58.9225l0 -1.421875l4.3125 0l0 1.421875l-4.3125 0z" fill-rule="nonzero"></path><path fill="#000000" d="m9.515625 77.9225l0 -1.421875l4.3125 0l0 1.421875l-4.3125 0z" fill-rule="nonzero"></path><path fill="#000000" d="m9.515625 96.9225l0 -1.421875l4.3125 0l0 1.421875l-4.3125 0z" fill-rule="nonzero"></path><path fill="#f1c232" d="m61.25197 16.262466l-3.1647835 1.0508919l0 -2.1017828zm-2.2975693 -5.178192l-1.4416008 2.8329163l-1.5916328 -1.486165zm-5.5449486 -2.1446419l1.1254692 2.9550686l-2.2509422 0zm-5.545681 2.1446419l3.0339622 1.3467512l-1.5916328 1.486165zm-2.2968407 5.178192l3.1647835 -1.0508909l0 2.1017828zm2.2968407 5.177517l1.4423294 -2.8322392l1.5916328 1.486166zm5.545681 2.145319l-1.125473 -2.9550686l2.2509422 0zm5.5449486 -2.145319l-3.0332336 -1.3460732l1.5916328 -1.486166zm-9.466209 -5.177517c0 -2.0221443 1.7556076 -3.661417 3.9212608 -3.661417c2.1656494 0 3.921257 1.6392727 3.921257 3.661417c0 2.0221462 -1.7556076 3.661419 -3.921257 3.661419c-2.1656532 0 -3.9212608 -1.6392727 -3.9212608 -3.661419z" fill-rule="nonzero"></path><path stroke="#ff9900" stroke-width="1.0" stroke-linejoin="round" stroke-linecap="butt" d="m61.25197 16.262466l-3.1647835 1.0508919l0 -2.1017828zm-2.2975693 -5.178192l-1.4416008 2.8329163l-1.5916328 -1.486165zm-5.5449486 -2.1446419l1.1254692 2.9550686l-2.2509422 0zm-5.545681 2.1446419l3.0339622 1.3467512l-1.5916328 1.486165zm-2.2968407 5.178192l3.1647835 -1.0508909l0 2.1017828zm2.2968407 5.177517l1.4423294 -2.8322392l1.5916328 1.486166zm5.545681 2.145319l-1.125473 -2.9550686l2.2509422 0zm5.5449486 -2.145319l-3.0332336 -1.3460732l1.5916328 -1.486166zm-9.466209 -5.177517c0 -2.0221443 1.7556076 -3.661417 3.9212608 -3.661417c2.1656494 0 3.921257 1.6392727 3.921257 3.661417c0 2.0221462 -1.7556076 3.661419 -3.921257 3.661419c-2.1656532 0 -3.9212608 -1.6392727 -3.9212608 -3.661419z" fill-rule="nonzero"></path><path fill="#000000" fill-opacity="0.0" d="m-39.46194 31.832022l125.5748 0l0 14.64567l-125.5748 0z" fill-rule="nonzero"></path><path fill="#cfe2f3" d="m43.138187 46.70461l0 0c-1.4785576 -1.2350311 -2.1272163 -2.88488 -1.448822 -3.6850395q1.2283478 -1.4488182 -0.22047043 -5.1338577q1.4488182 3.6850395 4.125984 5.921261l0 0c1.4785576 1.2350311 2.1272163 2.8848763 1.4488182 3.6850395l0 0c-0.67839813 0.80015945 -2.4269524 0.44762802 -3.90551 -0.7874031z" fill-rule="nonzero"></path><path stroke="#6d9eeb" stroke-width="1.0" stroke-linejoin="round" stroke-linecap="butt" d="m43.138187 46.70461l0 0c-1.4785576 -1.2350311 -2.1272163 -2.88488 -1.448822 -3.6850395q1.2283478 -1.4488182 -0.22047043 -5.1338577q1.4488182 3.6850395 4.125984 5.921261l0 0c1.4785576 1.2350311 2.1272163 2.8848763 1.4488182 3.6850395l0 0c-0.67839813 0.80015945 -2.4269524 0.44762802 -3.90551 -0.7874031z" fill-rule="nonzero"></path><path fill="#cfe2f3" d="m44.311413 58.342403l0 0c-1.4785576 -1.2350273 -2.1272163 -2.8848763 -1.4488182 -3.6850395q1.2283478 -1.4488182 -0.22047043 -5.1338577q1.4488182 3.6850395 4.125984 5.921261l0 0c1.4785576 1.2350311 2.1272125 2.88488 1.4488182 3.6850395l0 0c-0.67839813 0.80015945 -2.4269562 0.44762802 -3.9055138 -0.7874031z" fill-rule="nonzero"></path><path stroke="#6d9eeb" stroke-width="1.0" stroke-linejoin="round" stroke-linecap="butt" d="m44.311413 58.342403l0 0c-1.4785576 -1.2350273 -2.1272163 -2.8848763 -1.4488182 -3.6850395q1.2283478 -1.4488182 -0.22047043 -5.1338577q1.4488182 3.6850395 4.125984 5.921261l0 0c1.4785576 1.2350311 2.1272125 2.88488 1.4488182 3.6850395l0 0c-0.67839813 0.80015945 -2.4269562 0.44762802 -3.9055138 -0.7874031z" fill-rule="nonzero"></path><path fill="#cfe2f3" d="m53.117188 59.859467l0 0c-1.4785576 -1.2350311 -2.1272163 -2.88488 -1.4488182 -3.6850395q1.2283478 -1.448822 -0.22047424 -5.1338577q1.448822 3.6850357 4.125984 5.921257l0 0c1.4785576 1.2350311 2.1272163 2.88488 1.448822 3.6850395l0 0c-0.67839813 0.80016327 -2.4269562 0.44762802 -3.9055138 -0.7873993z" fill-rule="nonzero"></path><path stroke="#6d9eeb" stroke-width="1.0" stroke-linejoin="round" stroke-linecap="butt" d="m53.117188 59.859467l0 0c-1.4785576 -1.2350311 -2.1272163 -2.88488 -1.4488182 -3.6850395q1.2283478 -1.448822 -0.22047424 -5.1338577q1.448822 3.6850357 4.125984 5.921257l0 0c1.4785576 1.2350311 2.1272163 2.88488 1.448822 3.6850395l0 0c-0.67839813 0.80016327 -2.4269562 0.44762802 -3.9055138 -0.7873993z" fill-rule="nonzero"></path></g></svg>

