<?xml version="1.0" standalone="yes"?>

<svg version="1.1" viewBox="0.0 0.0 100.0 119.47769028871392" fill="none" stroke="none" stroke-linecap="square" stroke-miterlimit="10" xmlns="http://www.w3.org/2000/svg" xmlns:xlink="http://www.w3.org/1999/xlink"><clipPath id="p.0"><path d="m0 0l100.0 0l0 119.47769l-100.0 0l0 -119.47769z" clip-rule="nonzero"></path></clipPath><g clip-path="url(#p.0)"><path fill="#000000" fill-opacity="0.0" d="m0 0l100.0 0l0 119.47769l-100.0 0z" fill-rule="nonzero"></path><path fill="#000000" fill-opacity="0.0" d="m39.321785 18.979757l0 80.0136l0 0c0 10.482002 -8.802576 18.97934 -19.661102 18.97934c-10.858527 0 -19.661102 -8.497337 -19.661102 -18.97934l0 -80.0136l0 0c0 -10.481998 8.802575 -18.979338 19.661102 -18.979338c10.858526 0 19.661102 8.497339 19.661102 18.979338z" fill-rule="nonzero"></path><path stroke="#000000" stroke-width="1.0" stroke-linejoin="round" stroke-linecap="butt" d="m39.321785 18.979757l0 80.0136l0 0c0 10.482002 -8.802576 18.97934 -19.661102 18.97934c-10.858527 0 -19.661102 -8.497337 -19.661102 -18.97934l0 -80.0136l0 0c0 -10.481998 8.802575 -18.979338 19.661102 -18.979338c10.858526 0 19.661102 8.497339 19.661102 18.979338z" fill-rule="nonzero"></path><path fill="#000000" fill-opacity="0.0" d="m0 0l29.19685 0l0 97.291336l-29.19685 0z" fill-rule="nonzero"></path><path fill="#000000" d="m9.515625 20.9225l0 -1.421875l4.3125 0l0 1.421875l-4.3125 0z" fill-rule="nonzero"></path><path fill="#000000" d="m9.515625 39.9225l0 -1.421875l4.3125 0l0 1.421875l-4.3125 0z" fill-rule="nonzero"></path><path fill="#000000" d="m9.515625 58.9225l0 -1.421875l4.3125 0l0 1.421875l-4.3125 0z" fill-rule="nonzero"></path><path fill="#000000" d="m9.515625 77.9225l0 -1.421875l4.3125 0l0 1.421875l-4.3125 0z" fill-rule="nonzero"></path><path fill="#000000" d="m9.515625 96.9225l0 -1.421875l4.3125 0l0 1.421875l-4.3125 0z" fill-rule="nonzero"></path><path fill="#000000" fill-opacity="0.0" d="m-39.46194 31.832022l125.5748 0l0 14.64567l-125.5748 0z" fill-rule="nonzero"></path></g></svg>

